HIERARCHY
ROOT pelvis
{
  OFFSET 0 100 0
  CHANNELS 6 Xposition Yposition Zposition Zrotation Xrotation Yrotation
  JOINT pelvis_right_femur
  {
    OFFSET -10.78128 -3.44521 -0.5502486
    CHANNELS 3 Zrotation Xrotation Yrotation
    JOINT right_femur_tibia
    {
      OFFSET -0.8047443 -44.0398 -0.1307829
      CHANNELS 3 Zrotation Xrotation Yrotation
      JOINT right_tibia_foot
      {
        OFFSET 3.006224 -47.83518 -5
        CHANNELS 3 Zrotation Xrotation Yrotation
        End Site
        {
          OFFSET 0 -5 15
        }
      }
    }
  }
  JOINT pelvis_left_femur
  {
    OFFSET 10.78128 -3.44521 -0.5502486
    CHANNELS 3 Zrotation Xrotation Yrotation
    JOINT left_femur_tibia
    {
      OFFSET 0.8047443 -44.0398 -0.1307829
      CHANNELS 3 Zrotation Xrotation Yrotation
      JOINT left_tibia_foot
      {
        OFFSET -4.370144 -48.10324 -4.275266
        CHANNELS 3 Zrotation Xrotation Yrotation
        End Site
        {
          OFFSET 0 -5 15
        }
      }
    }
  }
  JOINT pelvis_spine1
  {
    OFFSET 0 6.468898 -3.129235
    CHANNELS 3 Zrotation Xrotation Yrotation
    JOINT spine1
    {
      OFFSET 0 23.15396 4.99043
      CHANNELS 3 Zrotation Xrotation Yrotation
      JOINT spine2
      {
        OFFSET 0 20.79997 -5.064912
        CHANNELS 3 Zrotation Xrotation Yrotation
        JOINT neck
        {
          OFFSET 0 14.38658 9.616178
          CHANNELS 3 Zrotation Xrotation Yrotation
          End Site
          {
            OFFSET 0 20 0
          }
        }
      }
      JOINT right_manubrium
      {
        OFFSET -5.722621 16.35077 3.967754
        CHANNELS 3 Zrotation Xrotation Yrotation
        JOINT right_clavicle
        {
          OFFSET -13.16364 1.694482 -4.693211
          CHANNELS 3 Zrotation Xrotation Yrotation
          JOINT right_humerus
          {
            OFFSET -28.5034 -0.3100689 -2.792744
            CHANNELS 3 Zrotation Xrotation Yrotation
            JOINT right_radius
            {
              OFFSET -25.15693 0.02248979 -1.271978
              CHANNELS 3 Zrotation Xrotation Yrotation
              End Site
              {
                OFFSET -15 0 0
              }
            }
          }
        }
      }
      JOINT left_manubrium
      {
        OFFSET 5.722621 16.35077 3.967754
        CHANNELS 3 Zrotation Xrotation Yrotation
        JOINT left_clavicle
        {
          OFFSET 13.16364 1.694482 -4.693211
          CHANNELS 3 Zrotation Xrotation Yrotation
          JOINT left_humerus
          {
            OFFSET 29.39168 -1.063119 -2.237045
            CHANNELS 3 Zrotation Xrotation Yrotation
            JOINT left_radius
            {
              OFFSET 24.59957 -0.9528479 0.9047498
              CHANNELS 3 Zrotation Xrotation Yrotation
              End Site
              {
                OFFSET 15 -0 -0
              }
            }
          }
        }
      }
    }
  }
}
MOTION
Frames: 7
Frame Time: 0.0416666666667
0 103.5113 0 4.32336 -3.764991 0.5350689 -4.452733 -3.799714 8.787118 -0 31.54574 -0 -7.035618 -14.04514 -1.860777 -10.13599 11.75561 -17.48847 -0 7.235422 -0 17.92629 -13.13892 29.2156 -6.51286 -3.170583 5.892096 0.9206529 9.622471 -5.942966 -0.5556111 19.4388 11.12393 8.945748 -19.42666 5.40837 11.02408 -15.58367 14.16363 82.03142 34.48253 -19.98568 -0 0 14.82249 -17.08051 5.276582 13.75296 9.279449 -22.94862 -1.515089 -101.119 30.21854 24.48936 0 0 -12.56799 6.097434 26.06058 4.872047
0.5485475 103.4079 0.9655636 3.995202 -4.159341 0.9552144 -3.416538 -7.925966 8.936761 -0 39.86851 -0 -7.240554 -11.69907 -3.022065 -10.02379 12.65907 -17.03211 -0 7.506034 -0 17.40967 -14.2628 28.63411 -6.422701 -2.150388 5.408115 0.9318213 9.903572 -6.269324 -0.5062653 19.33234 11.4657 9.37686 -20.0025 5.650522 10.76926 -15.77868 13.83952 81.66603 34.25055 -19.5289 -0 0 14.92195 -17.08844 5.274694 13.93841 9.060454 -22.86833 -1.559871 -100.477 30.20561 23.80553 0 0 -12.9678 6.730808 25.68798 4.663825
1.0365 103.312 2.099008 3.526689 -4.438389 1.394698 -2.144373 -12.25924 8.419101 -0 47.44437 -0 -7.645302 -9.274613 -4.252154 -9.674095 13.61716 -16.44845 -0 7.66959 -0 16.77399 -15.4544 27.94457 -6.267491 -1.07765 4.928993 1.034525 10.15315 -6.652589 -0.340719 19.30965 11.73245 9.793814 -20.81473 6.043134 10.53922 -15.94846 13.42622 81.37907 34.02916 -19.20279 -0 0 14.87514 -17.08122 5.30455 14.07676 8.745667 -22.93439 -1.528503 -99.61534 30.18362 22.97508 0 0 -13.3012 7.354055 25.23443 4.438723
1.342958 103.2277 3.366957 2.896685 -4.348921 1.309903 -0.9901227 -16.49147 6.977485 -0 51.84602 -0 -8.172458 -8.06784 -5.421287 -9.138278 14.39837 -15.72874 -0 7.6486 -0 15.9771 -16.67416 27.1474 -6.022945 -0.126969 4.724932 1.179711 10.1933 -6.921676 -0.09271234 19.28758 11.95297 10.17781 -21.74602 6.567409 10.32512 -16.10115 13.01326 81.29413 33.84612 -18.9742 -0 0 14.70601 -17.01304 5.38562 14.16301 8.304591 -23.13595 -1.398436 -98.67065 30.12302 22.00671 0 0 -13.44508 7.977783 24.70227 4.258897
1.749747 103.2379 4.923814 2.29552 -4.01117 1.233551 0.3394352 -21.04796 5.498525 -0 52.28601 -0 -8.632443 -7.390968 -5.735682 -8.637656 15.12067 -14.87815 -0 7.512874 -0 15.00282 -17.90076 26.18642 -5.831106 0.717222 4.65362 1.532858 10.11903 -7.229995 0.294915 19.21673 12.06783 10.56536 -22.72228 7.158726 9.956862 -16.05153 12.70517 81.41607 33.71915 -18.97548 -0 0 14.28751 -16.84506 5.535428 14.15743 7.979892 -23.2643 -1.507503 -97.88979 30.05729 21.01221 0 0 -13.76075 8.469353 24.1178 4.031734
2.120608 103.117 6.915755 1.796458 -3.237104 1.181914 1.441688 -25.19957 4.564073 -0 49.10788 -0 -8.953463 -6.692716 -5.030584 -8.198313 15.75913 -13.98604 -0 7.300233 -0 13.92966 -19.20299 25.10494 -5.829825 1.37153 4.497491 2.022913 9.769741 -7.731132 0.6611229 19.05975 12.11891 10.85594 -23.60677 7.704562 9.592026 -15.90392 12.47688 81.79967 33.66046 -19.15091 -0 0 13.61815 -16.56157 5.766307 14.06115 7.714372 -23.36829 -1.962249 -97.23692 30.02742 19.98831 0 0 -14.17549 8.773449 23.49774 3.819768
2.529976 102.6107 8.930616 1.674802 -2.196454 1.120278 1.984302 -28.78053 3.698638 -0 41.92258 -0 -8.919064 -6.13457 -4.27074 -8.172824 16.14408 -13.04318 -0 7.180612 -0 12.8212 -20.63081 23.94185 -5.997899 1.845145 4.576081 2.419777 9.398767 -8.047688 0.9544795 18.81205 12.14343 11.03855 -24.34186 8.170229 9.104231 -15.72574 12.31433 82.32644 33.67845 -19.3729 -0 0 12.7549 -16.1885 6.062863 13.88176 7.602939 -23.21741 -2.416555 -96.7857 29.9337 19.05286 0 0 -14.95984 8.944061 22.88481 3.531289
